<svg width="75" height="20" viewBox="0 0 75 20" fill="none" xmlns="http://www.w3.org/2000/svg">
<g clip-path="url(#clip0)">
<path fill-rule="evenodd" clip-rule="evenodd" d="M74.6122 3.45832C74.3467 3.16072 73.9917 3.01032 73.512 3.01032C73.0323 3.01032 72.6662 3.16872 72.4103 3.49672C72.1561 3.81352 72.0234 4.29032 72.0234 4.91432V9.43753C71.4333 8.80233 70.8209 8.34633 70.1989 8.03913C69.8103 7.85193 69.353 7.71272 68.8429 7.64232C68.5471 7.60232 68.2417 7.58153 67.9059 7.58153C66.3469 7.58153 65.0836 8.11753 64.1146 9.18953C63.1568 10.2615 62.6771 11.7495 62.6771 13.6615C62.6771 14.5655 62.8003 15.4087 63.0433 16.1815C63.2896 16.9543 63.6333 17.6295 64.1035 18.2039C64.572 18.7799 65.1332 19.2151 65.7744 19.5335C66.4156 19.8407 67.1096 19.9991 67.8627 19.9991C68.2081 19.9991 68.5343 19.9703 68.8397 19.9111C69.0444 19.8807 69.2363 19.8311 69.4314 19.7703C69.9095 19.6119 70.3588 19.3847 70.7665 19.0967C71.1839 18.7991 71.6028 18.4119 72.0202 17.9463V18.2439C72.0202 18.8087 72.1625 19.2359 72.4375 19.5431C72.7237 19.8407 73.0803 19.9991 73.5072 19.9991C73.9454 19.9991 74.3019 19.8503 74.577 19.5639C74.8504 19.2663 74.9943 18.8295 74.9943 18.2455V4.75752C74.9991 4.19112 74.8664 3.75432 74.6122 3.45832ZM71.4429 15.9351C71.1679 16.5095 70.8001 16.9367 70.3524 17.2151C69.8935 17.4935 69.393 17.6311 68.8429 17.6311H68.8333C68.2817 17.6311 67.7828 17.4823 67.3239 17.1959C66.8649 16.8983 66.4988 16.4615 66.2349 15.8871C65.9711 15.3015 65.8384 14.5975 65.8384 13.7639C65.8384 12.9799 65.9599 12.2871 66.2157 11.7015C66.4604 11.1063 66.817 10.6503 67.2663 10.3335C67.7252 10.0055 68.2353 9.85673 68.8141 9.85673H68.8445C69.385 9.85673 69.8839 10.0151 70.3428 10.3223C70.8017 10.6295 71.1679 11.0775 71.4429 11.6615C71.7179 12.2471 71.8507 12.9511 71.8507 13.7639C71.8507 14.6359 71.7179 15.3607 71.4429 15.9351ZM61.5466 16.0647C61.3532 15.8967 61.0877 15.8071 60.7615 15.8071C60.4657 15.8071 60.2418 15.8775 60.0787 16.0055C59.6806 16.3623 59.3656 16.6503 59.1193 16.8583C58.8763 17.0567 58.5997 17.2551 58.3054 17.4423C58.0208 17.6215 57.7138 17.7607 57.41 17.8407C57.0934 17.9287 56.7576 17.9687 56.3802 17.9687C56.2987 17.9687 56.2171 17.9687 56.1452 17.9591C55.6751 17.9303 55.2385 17.8007 54.842 17.5623C54.3719 17.2951 54.0057 16.8999 53.7195 16.3831C53.4444 15.8471 53.3021 15.2327 53.2925 14.5383H59.4375C60.2626 14.5383 60.9038 14.4183 61.3532 14.2007C61.8121 13.9623 62.0359 13.4663 62.0359 12.7031C62.0359 11.8695 61.8121 11.0567 61.3739 10.2535C60.9358 9.45833 60.2834 8.80393 59.3976 8.29992C58.5197 7.79432 57.4708 7.54632 56.2379 7.54632H56.1468C55.2401 7.55592 54.4039 7.70632 53.6603 7.98312C52.8864 8.28072 52.2324 8.70793 51.6919 9.25193C51.1739 9.80713 50.7661 10.4711 50.4911 11.2455C50.216 12.0199 50.0721 12.8631 50.0721 13.7639C50.0721 15.6887 50.6334 17.1959 51.7543 18.3159C52.8128 19.3783 54.2807 19.9335 56.1452 19.9927C56.2475 20.0023 56.3578 20.0023 56.4714 20.0023C57.3476 20.0023 58.1312 19.8935 58.8139 19.6663C59.4967 19.4375 60.058 19.1591 60.5073 18.8231C60.9534 18.4759 61.2908 18.1191 61.5147 17.7527C61.7385 17.3863 61.852 17.0583 61.852 16.7895C61.852 16.4807 61.7513 16.2327 61.5466 16.0647ZM54.2104 10.4599C54.7109 9.93353 55.3521 9.67593 56.1372 9.67593H56.1484C56.9623 9.67593 57.6259 9.93353 58.1248 10.4487C58.6252 10.9655 58.9195 11.7495 58.9914 12.7991H53.2941C53.3949 11.7687 53.7019 10.9847 54.2104 10.4599ZM48.1661 15.8055C47.8607 15.8055 47.6368 15.8759 47.4737 16.0039C47.0868 16.3607 46.7606 16.6487 46.5159 16.8567C46.2713 17.0551 46.0059 17.2535 45.71 17.4407C45.4158 17.6199 45.1184 17.7591 44.8034 17.8391C44.498 17.9271 44.151 17.9671 43.7736 17.9671C43.6937 17.9671 43.6121 17.9671 43.5402 17.9575C43.0701 17.9287 42.6335 17.7991 42.2354 17.5607C41.7781 17.2935 41.4007 16.8983 41.1257 16.3815C40.8395 15.8455 40.6971 15.2311 40.6859 14.5367H46.8405C47.656 14.5367 48.2972 14.4167 48.7562 14.1991C49.2039 13.9607 49.4293 13.4647 49.4293 12.7015C49.4293 11.8679 49.2151 11.0551 48.7769 10.2519C48.3388 9.45672 47.6768 8.80233 46.8006 8.29833C45.9227 7.79273 44.8642 7.54473 43.6425 7.54473H43.5402C42.6335 7.55433 41.8085 7.70473 41.0537 7.98153C40.2782 8.27913 39.6258 8.70633 39.0965 9.25033C38.5673 9.80553 38.1595 10.4695 37.8845 11.2439C37.6079 12.0183 37.4655 12.8615 37.4655 13.7623C37.4655 15.6871 38.0364 17.1943 39.1573 18.3143C40.2174 19.3767 41.6741 19.9319 43.5386 19.9911C43.6505 20.0007 43.7512 20.0007 43.8648 20.0007C44.7506 20.0007 45.5262 19.8919 46.2073 19.6647C46.8901 19.4359 47.4514 19.1575 47.8991 18.8215C48.358 18.4743 48.6842 18.1175 48.9081 17.7511C49.1319 17.3847 49.2454 17.0567 49.2454 16.7879C49.2454 16.4807 49.1431 16.2327 48.9496 16.0647C48.7482 15.8951 48.4811 15.8055 48.1661 15.8055ZM41.6038 10.4599C42.1027 9.93353 42.7455 9.67593 43.5306 9.67593H43.5418C44.3557 9.67593 45.0193 9.93353 45.5182 10.4487C46.0266 10.9655 46.3129 11.7495 46.3944 12.7991H40.6875C40.7995 11.7687 41.1065 10.9847 41.6038 10.4599ZM6.54547 17.9687V10.6679C6.75814 10.6871 6.96281 10.6967 7.17708 10.6967C8.19565 10.6967 9.15506 10.4295 9.96895 9.95273V17.9671C9.96895 18.6519 9.80586 19.1575 9.48925 19.4951C9.17425 19.8311 8.75531 19.9991 8.24682 19.9991C7.74633 19.9991 7.34978 19.8311 7.02358 19.4839C6.70857 19.1479 6.54547 18.6423 6.54547 17.9687ZM36.1464 3.45832C35.8809 3.16072 35.5147 3.01032 35.0558 3.01032C34.5761 3.01032 34.21 3.16872 33.9541 3.49672C33.6903 3.81352 33.5672 4.29032 33.5672 4.91432V9.43753C32.9771 8.80233 32.3663 8.34633 31.7427 8.03913C31.3461 7.85193 30.8968 7.71272 30.3883 7.64232C30.0941 7.60232 29.7871 7.58153 29.4513 7.58153C27.8923 7.58153 26.6179 8.11753 25.66 9.18953C24.7022 10.2615 24.2225 11.7495 24.2225 13.6615C24.2225 14.5655 24.3457 15.4087 24.5791 16.1815C24.8238 16.9543 25.1803 17.6295 25.6505 18.2039C26.119 18.7799 26.6786 19.2151 27.3214 19.5335C27.9642 19.8407 28.655 19.9991 29.4097 19.9991C29.7455 19.9991 30.0717 19.9703 30.3867 19.9111C30.5914 19.8807 30.7849 19.8311 30.9784 19.7703C31.4565 19.6119 31.9058 19.3847 32.3135 19.0967C32.7309 18.7991 33.1402 18.4119 33.5656 17.9463V18.2439C33.5656 18.8087 33.7095 19.2359 33.9845 19.5431C34.2595 19.8407 34.6273 19.9991 35.0542 19.9991C35.4716 19.9991 35.8393 19.8503 36.1144 19.5639C36.3894 19.2663 36.5205 18.8295 36.5205 18.2455V4.75752C36.5221 4.19112 36.4006 3.75432 36.1464 3.45832ZM32.9867 15.9351C32.7117 16.5095 32.3439 16.9367 31.8866 17.2151C31.4373 17.4935 30.9272 17.6311 30.3883 17.6311H30.3787C29.8287 17.6311 29.3282 17.4823 28.8709 17.1959C28.4023 16.8983 28.0458 16.4615 27.7803 15.8871C27.5165 15.3015 27.3838 14.5975 27.3838 13.7639C27.3838 12.9799 27.5069 12.2871 27.75 11.7015C28.0042 11.1063 28.3512 10.6503 28.8101 10.3335C29.2578 10.0055 29.7775 9.85673 30.3483 9.85673H30.3883C30.9288 9.85673 31.4277 10.0151 31.877 10.3223C32.3455 10.6295 32.7117 11.0775 32.9867 11.6615C33.2505 12.2471 33.3945 12.9511 33.3945 13.7639C33.3945 14.6359 33.2505 15.3607 32.9867 15.9351ZM14.993 9.25033V9.62793C15.5527 8.91272 16.1539 8.39752 16.8063 8.05992C17.4683 7.73352 18.223 7.56392 19.0785 7.56392C19.9052 7.56392 20.6487 7.74313 21.2995 8.09033C21.9519 8.43593 22.43 8.93353 22.7562 9.57833C22.9705 9.95433 23.1032 10.3623 23.164 10.7991C23.2248 11.2247 23.2551 11.7799 23.2551 12.4551V18.1399C23.2551 18.7543 23.1016 19.2199 22.817 19.5271C22.5324 19.8439 22.155 20.0023 21.6961 20.0023C21.2276 20.0023 20.8502 19.8439 20.5544 19.5175C20.2586 19.1991 20.1163 18.7351 20.1163 18.1399V13.0471C20.1163 12.0359 19.9724 11.2631 19.6877 10.7271C19.4031 10.1927 18.8211 9.92393 17.9672 9.92393C17.406 9.92393 16.8975 10.0919 16.4386 10.4103C15.9796 10.7383 15.6342 11.1831 15.42 11.7591C15.2665 12.2151 15.1961 13.0583 15.1961 14.3191V18.1383C15.1961 18.7623 15.0442 19.2183 14.7484 19.5367C14.4526 19.8439 14.0768 20.0023 13.6067 20.0023C13.1478 20.0023 12.78 19.8439 12.4858 19.5175C12.19 19.1991 12.0477 18.7351 12.0477 18.1399V9.29993C12.0477 8.71593 12.1804 8.27913 12.4458 8.00073C12.7001 7.71432 13.0566 7.56392 13.5156 7.56392C13.7906 7.56392 14.0352 7.62313 14.2591 7.75273C14.483 7.88073 14.6652 8.06953 14.7996 8.32713C14.9307 8.58473 14.993 8.89353 14.993 9.25033ZM6.56466 0.472723C8.68495 -0.271277 11.0995 -0.231277 12.9127 1.29512C13.2501 1.60232 13.6355 1.98952 13.789 2.44552C13.9729 3.02152 13.1478 2.38472 13.0343 2.30632C12.4426 1.92872 11.8526 1.61192 11.1906 1.39432C7.6248 0.323923 4.25089 2.25832 2.15299 5.26312C1.27673 6.59112 0.705886 7.98953 0.237376 9.52713C0.186208 9.69513 0.146232 9.91433 0.0534899 10.0615C-0.0392528 10.2311 0.0135146 9.60713 0.0135146 9.58633C0.0838711 8.95113 0.216589 8.33672 0.381287 7.72232C1.34869 4.44872 3.48817 1.72232 6.56466 0.472723ZM10.6709 6.35432C10.6709 7.74472 9.54362 8.87273 8.15408 8.87273C6.76454 8.87273 5.63883 7.74472 5.63883 6.35432C5.63883 4.96392 6.76454 3.83592 8.15408 3.83592C9.54362 3.83592 10.6709 4.96232 10.6709 6.35432Z" fill="white"/>
<path d="M42.3674 4.6448C42.3674 4.8704 42.377 5.1872 42.4138 5.3152H41.6047C41.6255 5.192 41.6398 4.8704 41.6398 4.6448V2.9648C41.1122 3.2304 40.4742 3.4976 39.8793 3.6608L39.5116 3.0368C40.407 2.8416 41.2673 2.464 41.8397 2.1104C42.3562 1.7872 42.8887 1.3328 43.1749 0.953598L43.7218 1.4496C43.3332 1.8384 42.8727 2.2224 42.3658 2.5504V4.6448H42.3674Z" fill="white"/>
<path d="M46.859 3.9376C47.7289 3.4208 48.3989 2.6368 48.7219 1.9456L49.1216 2.6672C48.7331 3.3584 48.0519 4.0656 47.2284 4.5616C46.7119 4.8736 46.0515 5.16 45.3304 5.2832L44.9002 4.608C45.6981 4.496 46.3633 4.2352 46.859 3.9376ZM46.859 2.28L46.3377 2.8176C46.0723 2.5312 45.4327 1.9728 45.0585 1.712L45.5398 1.2C45.898 1.44 46.5632 1.9728 46.859 2.28Z" fill="white"/>
<path d="M54.0945 2.5664C54.2017 2.5664 54.4271 2.5568 54.5598 2.536V3.2016C54.4319 3.192 54.2368 3.1856 54.0945 3.1856H52.8617C52.8313 3.7136 52.7178 4.1424 52.5339 4.5008C52.3548 4.8544 51.9614 5.2528 51.5057 5.4832L50.9077 5.048C51.2707 4.9104 51.6289 4.6176 51.8335 4.3152C52.043 3.9984 52.1309 3.6144 52.1501 3.184H50.743C50.5943 3.184 50.3944 3.1936 50.2521 3.2048V2.5344C50.4056 2.5552 50.5847 2.5648 50.743 2.5648H54.0945V2.5664ZM51.3938 1.8704C51.2195 1.8704 51.0004 1.8752 50.8469 1.8864V1.2256C51.01 1.2512 51.2211 1.2672 51.3938 1.2672H53.0664C53.2407 1.2672 53.4453 1.2512 53.6196 1.2256V1.8864C53.4453 1.8768 53.2455 1.8704 53.0664 1.8704H51.3938ZM53.9202 1.752C53.8131 1.5424 53.6548 1.24 53.5157 1.04L53.925 0.870399C54.053 1.0592 54.232 1.3824 54.3296 1.5712L53.9202 1.752ZM54.5343 1.5168C54.4271 1.3024 54.2624 1.0048 54.1249 0.809599L54.5295 0.639999C54.6622 0.835199 54.8525 1.1568 54.9388 1.336L54.5343 1.5168Z" fill="white"/>
<path d="M59.2018 2.3568C58.9619 2.6224 58.5158 2.9808 58.0505 3.2832V4.9888C58.0505 5.168 58.0553 5.44 58.0857 5.5424H57.3277C57.3437 5.44 57.3533 5.168 57.3533 4.9888V3.6736C56.9024 3.888 56.3395 4.1136 55.911 4.232L55.5688 3.6384C56.2292 3.5008 56.9712 3.1824 57.3757 2.9472C57.897 2.64 58.4343 2.2144 58.6901 1.8816L59.2018 2.3568Z" fill="white"/>
<path d="M60.3371 2.72C60.521 2.736 60.8951 2.7504 61.1606 2.7504H63.9077C64.1427 2.7504 64.373 2.7296 64.5057 2.72V3.5232C64.3826 3.5184 64.1219 3.4976 63.9077 3.4976H61.1606C60.8696 3.4976 60.5258 3.5072 60.3371 3.5232V2.72Z" fill="white"/>
<path d="M66.7491 2.4784C67.4303 2.6832 68.4169 3.0464 68.8886 3.2768L68.6024 3.9888C68.0699 3.7072 67.3024 3.4096 66.7507 3.2256V4.6752C66.7507 4.8192 66.7763 5.1776 66.8019 5.3872H65.9992C66.0296 5.1872 66.0503 4.8752 66.0503 4.6752V1.7312C66.0503 1.5472 66.0344 1.296 65.9992 1.112H66.7971C66.7763 1.2912 66.7507 1.5168 66.7507 1.7312V2.4784H66.7491ZM68.1099 2.2544C67.9612 1.9312 67.8492 1.7264 67.6605 1.4656L68.0907 1.2816C68.2346 1.496 68.4393 1.824 68.556 2.0544L68.1099 2.2544ZM68.8102 1.968C68.6471 1.6448 68.524 1.456 68.3337 1.2L68.7591 1C68.9078 1.2048 69.122 1.528 69.2404 1.7584L68.8102 1.968Z" fill="white"/>
</g>
<defs>
<clipPath id="clip0">
<rect width="75" height="20" fill="white"/>
</clipPath>
</defs>
</svg>
