<svg width="75" height="20" viewBox="0 0 75 20" fill="none" xmlns="http://www.w3.org/2000/svg">
<g clip-path="url(#clip0)">
<path fill-rule="evenodd" clip-rule="evenodd" d="M74.6136 3.45714C74.3482 3.15954 73.9932 3.00914 73.5135 3.00914C73.0338 3.00914 72.6676 3.16754 72.4118 3.49554C72.1575 3.81234 72.0248 4.28914 72.0248 4.91314V9.43634C71.4348 8.80114 70.8223 8.34514 70.2003 8.03794C69.8118 7.85074 69.3545 7.71154 68.8444 7.64114C68.5486 7.60114 68.2431 7.58034 67.9074 7.58034C66.3483 7.58034 65.0851 8.11634 64.1161 9.18834C63.1583 10.2603 62.6786 11.7483 62.6786 13.6603C62.6786 14.5643 62.8017 15.4075 63.0448 16.1803C63.291 16.9531 63.6348 17.6283 64.1049 18.2027C64.5734 18.7787 65.1347 19.2139 65.7759 19.5323C66.4171 19.8395 67.111 19.9979 67.8642 19.9979C68.2096 19.9979 68.5358 19.9691 68.8412 19.9099C69.0458 19.8795 69.2377 19.8299 69.4328 19.7691C69.9109 19.6107 70.3602 19.3835 70.768 19.0955C71.1853 18.7979 71.6043 18.4107 72.0216 17.9451V18.2427C72.0216 18.8075 72.1639 19.2347 72.4389 19.5419C72.7252 19.8395 73.0818 19.9979 73.5087 19.9979C73.9468 19.9979 74.3034 19.8491 74.5784 19.5627C74.8519 19.2651 74.9958 18.8283 74.9958 18.2443V4.75634C75.0006 4.18994 74.8679 3.75314 74.6136 3.45714ZM71.4444 15.9339C71.1693 16.5083 70.8016 16.9355 70.3538 17.2139C69.8949 17.4923 69.3944 17.6299 68.8444 17.6299H68.8348C68.2831 17.6299 67.7842 17.4811 67.3253 17.1947C66.8664 16.8971 66.5002 16.4603 66.2364 15.8859C65.9726 15.3003 65.8398 14.5963 65.8398 13.7627C65.8398 12.9787 65.9614 12.2859 66.2172 11.7003C66.4618 11.1051 66.8184 10.6491 67.2677 10.3323C67.7267 10.0043 68.2367 9.85554 68.8156 9.85554H68.846C69.3864 9.85554 69.8853 10.0139 70.3442 10.3211C70.8032 10.6283 71.1693 11.0763 71.4444 11.6603C71.7194 12.2459 71.8521 12.9499 71.8521 13.7627C71.8521 14.6347 71.7194 15.3595 71.4444 15.9339ZM61.5481 16.0635C61.3546 15.8955 61.0892 15.8059 60.763 15.8059C60.4672 15.8059 60.2433 15.8763 60.0802 16.0043C59.682 16.3611 59.367 16.6491 59.1208 16.8571C58.8777 17.0555 58.6011 17.2539 58.3069 17.4411C58.0223 17.6203 57.7153 17.7595 57.4114 17.8395C57.0948 17.9275 56.759 17.9675 56.3817 17.9675C56.3001 17.9675 56.2186 17.9675 56.1466 17.9579C55.6765 17.9291 55.24 17.7995 54.8434 17.5611C54.3733 17.2939 54.0072 16.8987 53.7209 16.3819C53.4459 15.8459 53.3036 15.2315 53.294 14.5371H59.439C60.2641 14.5371 60.9053 14.4171 61.3546 14.1995C61.8135 13.9611 62.0374 13.4651 62.0374 12.7019C62.0374 11.8683 61.8135 11.0555 61.3754 10.2523C60.9373 9.45714 60.2849 8.80274 59.399 8.29874C58.5212 7.79314 57.4722 7.54514 56.2394 7.54514H56.1482C55.2416 7.55474 54.4053 7.70514 53.6618 7.98194C52.8878 8.27954 52.2338 8.70674 51.6934 9.25074C51.1753 9.80594 50.7676 10.4699 50.4925 11.2443C50.2175 12.0187 50.0736 12.8619 50.0736 13.7627C50.0736 15.6875 50.6348 17.1947 51.7557 18.3147C52.8143 19.3771 54.2822 19.9323 56.1466 19.9915C56.249 20.0011 56.3593 20.0011 56.4728 20.0011C57.3491 20.0011 58.1326 19.8923 58.8154 19.6651C59.4982 19.4363 60.0594 19.1579 60.5087 18.8219C60.9549 18.4747 61.2922 18.1179 61.5161 17.7515C61.74 17.3851 61.8535 17.0571 61.8535 16.7883C61.8535 16.4795 61.7528 16.2315 61.5481 16.0635ZM54.2118 10.4587C54.7123 9.93234 55.3535 9.67474 56.1386 9.67474H56.1498C56.9637 9.67474 57.6273 9.93234 58.1262 10.4475C58.6267 10.9643 58.9209 11.7483 58.9929 12.7979H53.2956C53.3963 11.7675 53.7033 10.9835 54.2118 10.4587ZM48.1676 15.8043C47.8622 15.8043 47.6383 15.8747 47.4752 16.0027C47.0882 16.3595 46.762 16.6475 46.5174 16.8555C46.2727 17.0539 46.0073 17.2523 45.7115 17.4395C45.4173 17.6187 45.1198 17.7579 44.8048 17.8379C44.4994 17.9259 44.1524 17.9659 43.7751 17.9659C43.6951 17.9659 43.6136 17.9659 43.5416 17.9563C43.0715 17.9275 42.635 17.7979 42.2368 17.5595C41.7795 17.2923 41.4022 16.8971 41.1271 16.3803C40.8409 15.8443 40.6986 15.2299 40.6874 14.5355H46.842C47.6575 14.5355 48.2987 14.4155 48.7576 14.1979C49.2053 13.9595 49.4308 13.4635 49.4308 12.7003C49.4308 11.8667 49.2165 11.0539 48.7784 10.2507C48.3403 9.45554 47.6783 8.80114 46.802 8.29714C45.9242 7.79154 44.8656 7.54354 43.644 7.54354H43.5416C42.635 7.55314 41.8099 7.70354 41.0552 7.98034C40.2796 8.27794 39.6272 8.70514 39.098 9.24914C38.5687 9.80434 38.161 10.4683 37.8859 11.2427C37.6093 12.0171 37.467 12.8603 37.467 13.7611C37.467 15.6859 38.0378 17.1931 39.1587 18.3131C40.2189 19.3755 41.6756 19.9307 43.54 19.9899C43.652 19.9995 43.7527 19.9995 43.8662 19.9995C44.7521 19.9995 45.5276 19.8907 46.2088 19.6635C46.8916 19.4347 47.4528 19.1563 47.9005 18.8203C48.3594 18.4731 48.6856 18.1163 48.9095 17.7499C49.1334 17.3835 49.2469 17.0555 49.2469 16.7867C49.2469 16.4795 49.1446 16.2315 48.9511 16.0635C48.7496 15.8939 48.4826 15.8043 48.1676 15.8043ZM41.6052 10.4587C42.1041 9.93234 42.7469 9.67474 43.532 9.67474H43.5432C44.3571 9.67474 45.0207 9.93234 45.5196 10.4475C46.0281 10.9643 46.3143 11.7483 46.3959 12.7979H40.689C40.8009 11.7675 41.1079 10.9835 41.6052 10.4587ZM6.54691 17.9675V10.6667C6.75958 10.6859 6.96425 10.6955 7.17852 10.6955C8.19709 10.6955 9.15649 10.4283 9.97039 9.95154V17.9659C9.97039 18.6507 9.80729 19.1563 9.49069 19.4939C9.17568 19.8299 8.75674 19.9979 8.24826 19.9979C7.74777 19.9979 7.35121 19.8299 7.02501 19.4827C6.71001 19.1467 6.54691 18.6411 6.54691 17.9675ZM36.1478 3.45714C35.8824 3.15954 35.5162 3.00914 35.0573 3.00914C34.5776 3.00914 34.2114 3.16754 33.9556 3.49554C33.6917 3.81234 33.5686 4.28914 33.5686 4.91314V9.43634C32.9786 8.80114 32.3677 8.34514 31.7441 8.03794C31.3476 7.85074 30.8982 7.71154 30.3898 7.64114C30.0955 7.60114 29.7885 7.58034 29.4527 7.58034C27.8937 7.58034 26.6193 8.11634 25.6615 9.18834C24.7037 10.2603 24.224 11.7483 24.224 13.6603C24.224 14.5643 24.3471 15.4075 24.5806 16.1803C24.8252 16.9531 25.1818 17.6283 25.6519 18.2027C26.1204 18.7787 26.6801 19.2139 27.3229 19.5323C27.9657 19.8395 28.6564 19.9979 29.4112 19.9979C29.747 19.9979 30.0732 19.9691 30.3882 19.9099C30.5928 19.8795 30.7863 19.8299 30.9798 19.7691C31.4579 19.6107 31.9072 19.3835 32.315 19.0955C32.7323 18.7979 33.1417 18.4107 33.567 17.9451V18.2427C33.567 18.8075 33.7109 19.2347 33.9859 19.5419C34.261 19.8395 34.6287 19.9979 35.0557 19.9979C35.473 19.9979 35.8408 19.8491 36.1158 19.5627C36.3909 19.2651 36.522 18.8283 36.522 18.2443V4.75634C36.5236 4.18994 36.402 3.75314 36.1478 3.45714ZM32.9882 15.9339C32.7131 16.5083 32.3454 16.9355 31.888 17.2139C31.4387 17.4923 30.9286 17.6299 30.3898 17.6299H30.3802C29.8301 17.6299 29.3296 17.4811 28.8723 17.1947C28.4038 16.8971 28.0472 16.4603 27.7818 15.8859C27.5179 15.3003 27.3852 14.5963 27.3852 13.7627C27.3852 12.9787 27.5083 12.2859 27.7514 11.7003C28.0056 11.1051 28.3526 10.6491 28.8115 10.3323C29.2593 10.0043 29.7789 9.85554 30.3498 9.85554H30.3898C30.9302 9.85554 31.4291 10.0139 31.8784 10.3211C32.347 10.6283 32.7131 11.0763 32.9882 11.6603C33.252 12.2459 33.3959 12.9499 33.3959 13.7627C33.3959 14.6347 33.252 15.3595 32.9882 15.9339ZM14.9945 9.24914V9.62674C15.5541 8.91154 16.1554 8.39634 16.8078 8.05874C17.4698 7.73234 18.2245 7.56274 19.08 7.56274C19.9066 7.56274 20.6502 7.74194 21.301 8.08914C21.9534 8.43474 22.4315 8.93234 22.7577 9.57714C22.972 9.95314 23.1047 10.3611 23.1654 10.7979C23.2262 11.2235 23.2566 11.7787 23.2566 12.4539V18.1387C23.2566 18.7531 23.1031 19.2187 22.8184 19.5259C22.5338 19.8427 22.1565 20.0011 21.6975 20.0011C21.229 20.0011 20.8517 19.8427 20.5558 19.5163C20.26 19.1979 20.1177 18.7339 20.1177 18.1387V13.0459C20.1177 12.0347 19.9738 11.2619 19.6892 10.7259C19.4046 10.1915 18.8225 9.92274 17.9686 9.92274C17.4074 9.92274 16.8989 10.0907 16.44 10.4091C15.9811 10.7371 15.6357 11.1819 15.4214 11.7579C15.2679 12.2139 15.1976 13.0571 15.1976 14.3179V18.1371C15.1976 18.7611 15.0457 19.2171 14.7498 19.5355C14.454 19.8427 14.0783 20.0011 13.6081 20.0011C13.1492 20.0011 12.7815 19.8427 12.4872 19.5163C12.1914 19.1979 12.0491 18.7339 12.0491 18.1387V9.29874C12.0491 8.71474 12.1818 8.27794 12.4473 7.99954C12.7015 7.71314 13.0581 7.56274 13.517 7.56274C13.792 7.56274 14.0367 7.62194 14.2605 7.75154C14.4844 7.87954 14.6667 8.06834 14.801 8.32594C14.9321 8.58354 14.9945 8.89234 14.9945 9.24914ZM6.5661 0.47154C8.68639 -0.27246 11.1009 -0.23246 12.9142 1.29394C13.2516 1.60114 13.6369 1.98834 13.7904 2.44434C13.9743 3.02034 13.1492 2.38354 13.0357 2.30514C12.4441 1.92754 11.854 1.61074 11.192 1.39314C7.62624 0.32274 4.25233 2.25714 2.15443 5.26194C1.27817 6.58994 0.707321 7.98834 0.23881 9.52594C0.187642 9.69394 0.147667 9.91314 0.0549242 10.0603C-0.0378184 10.2299 0.0149489 9.60594 0.0149489 9.58514C0.0853054 8.94994 0.218023 8.33554 0.382721 7.72114C1.35012 4.44754 3.4896 1.72114 6.5661 0.47154ZM10.6724 6.35314C10.6724 7.74354 9.54505 8.87154 8.15551 8.87154C6.76597 8.87154 5.64027 7.74354 5.64027 6.35314C5.64027 4.96274 6.76597 3.83474 8.15551 3.83474C9.54505 3.83474 10.6724 4.96114 10.6724 6.35314Z" fill="white"/>
</g>
<defs>
<clipPath id="clip0">
<rect width="75" height="20" fill="white"/>
</clipPath>
</defs>
</svg>
